<?xml version="1.0" encoding="UTF-8" standalone="no"?><!DOCTYPE svg PUBLIC "-//W3C//DTD SVG 1.1//EN" "http://www.w3.org/Graphics/SVG/1.1/DTD/svg11.dtd"><svg width="100%" height="100%" viewBox="0 0 300 300" version="1.1" xmlns="http://www.w3.org/2000/svg" xmlns:xlink="http://www.w3.org/1999/xlink" xml:space="preserve" style="fill-rule:evenodd;clip-rule:evenodd;stroke-linejoin:round;stroke-miterlimit:1.41421;"><g id="Calque1"><rect x="0" y="0" width="300" height="300" style="fill:#26005f;"/><g><g><path d="M47.955,160.408c6.258,0 10.789,-3.523 10.789,-9.82c0,-4.787 -3.859,-6.215 -8.183,-8.777c-2.438,-1.428 -3.194,-2.31 -3.236,-3.486c-0.042,-1.427 1.177,-2.561 2.942,-2.561c1.345,0 2.981,0.462 4.618,2.645l4.783,-3.988c-2.057,-3.062 -5.664,-4.572 -9.149,-4.572c-5.67,0 -10.201,3.566 -10.201,9.232c0,4.872 3.86,6.846 7.343,8.861c2.816,1.638 4.035,2.226 4.035,3.654c0,1.512 -1.345,2.814 -3.741,2.814c-1.931,0 -4.196,-1.176 -5.581,-3.528l-4.784,4.199c2.393,3.733 6.504,5.327 10.365,5.327Z" style="fill:#00ffa5;fill-rule:nonzero;"/><path d="M70.08,160.408c3.946,0 6.759,-1.552 8.901,-4.488l-4.871,-3.107c-1.217,1.471 -2.393,1.975 -3.568,1.975c-1.722,0 -2.813,-1.345 -2.813,-3.571c0,-3.444 1.931,-6.511 4.744,-6.511c1.176,0 2.225,0.504 2.897,1.806l4.828,-3.609c-1.679,-2.433 -4.24,-3.775 -7.893,-3.775c-7.093,0 -10.911,6.04 -10.911,12.341c0,5.835 3.356,8.939 8.686,8.939Z" style="fill:#00ffa5;fill-rule:nonzero;"/><path d="M83.981,139.509l-2.518,20.521l6.295,0l0.923,-7.887c0.756,-4.867 3.274,-7.133 6.296,-6.042l0.881,-6.973c-2.266,0 -4.281,1.091 -5.876,3.189l-0.083,0l0.377,-2.808l-6.295,0Z" style="fill:#00ffa5;fill-rule:nonzero;"/></g><g><path d="M102.701,160.408c2.31,0 4.367,-1.258 5.878,-3.439l0.126,0.042l-0.378,3.019l6.34,0l2.519,-20.525l-6.34,0l-0.168,1.426l-0.126,0c-1.091,-1.132 -2.687,-1.803 -4.828,-1.803c-5.372,0 -9.693,5.578 -9.693,12.887c0,4.744 2.265,8.393 6.67,8.393Zm2.016,-5.578c-1.428,0 -2.351,-1.303 -2.351,-3.277c0,-3.066 1.679,-6.805 4.45,-6.805c1.301,0 2.477,0.504 3.401,1.47l-0.084,0.589c-0.714,5.166 -3.233,8.023 -5.416,8.023Z" style="fill:#00ffa5;fill-rule:nonzero;"/><path d="M125.249,160.408c1.887,0 3.734,-0.462 5.498,-1.427l-1.008,-4.912c-0.798,0.419 -1.511,0.671 -2.057,0.671c-0.672,0 -1.091,-0.545 -0.924,-1.721l1.008,-8.439l4.24,0l0.63,-5.075l-4.24,0l0.881,-7.263l-6.417,1.26l-0.797,6.003l-2.012,0l-0.63,5.075l2.014,0l-1.09,9.279c-0.588,4.744 1.718,6.549 4.904,6.549Z" style="fill:#00ffa5;fill-rule:nonzero;"/><path d="M141.285,160.408c3.946,0 6.759,-1.552 8.9,-4.488l-4.87,-3.107c-1.217,1.471 -2.393,1.975 -3.568,1.975c-1.722,0 -2.813,-1.345 -2.813,-3.571c0,-3.444 1.931,-6.511 4.744,-6.511c1.175,0 2.225,0.504 2.897,1.806l4.828,-3.609c-1.68,-2.433 -4.241,-3.775 -7.893,-3.775c-7.093,0 -10.911,6.04 -10.911,12.341c0,5.835 3.356,8.939 8.686,8.939Z" style="fill:#00ffa5;fill-rule:nonzero;"/><path d="M156.456,129.135l-3.82,30.895l6.297,0l0.882,-7.387c0.63,-5.208 3.359,-7.895 5.29,-7.895c1.343,0 1.595,1.302 1.217,4.157l-1.511,11.125l6.283,0l1.632,-12.553c0.755,-5.749 -0.837,-8.349 -4.729,-8.349c-2.682,0 -4.991,1.132 -6.839,3.271l-0.084,-0.042l1.638,-13.222l-6.256,0Z" style="fill:#00ffa5;fill-rule:nonzero;"/><path d="M188.811,160.408c4.534,0 8.522,-1.888 11.293,-5.118l-4.702,-4.366c-1.595,1.89 -3.904,3.024 -6.13,3.024c-3.442,0 -5.541,-2.268 -5.541,-6.341c0,-5.586 3.19,-11.34 8.354,-11.34c2.267,0 4.073,1.47 5.374,3.822l5.332,-4.031c-2.771,-4.657 -6.801,-6.209 -10.328,-6.209c-9.571,0 -15.823,8.098 -15.823,18.009c0,8.313 5.245,12.55 12.171,12.55Z" style="fill:#00ffa5;fill-rule:nonzero;"/></g><g><path d="M209.72,160.408c2.31,0 4.367,-1.258 5.878,-3.439l0.126,0.042l-0.378,3.019l6.34,0l2.519,-20.525l-6.34,0l-0.168,1.426l-0.126,0c-1.091,-1.132 -2.687,-1.803 -4.828,-1.803c-5.372,0 -9.693,5.578 -9.693,12.887c0,4.744 2.265,8.393 6.67,8.393Zm2.016,-5.578c-1.428,0 -2.351,-1.303 -2.351,-3.277c0,-3.066 1.679,-6.805 4.45,-6.805c1.301,0 2.477,0.504 3.401,1.47l-0.084,0.589c-0.714,5.166 -3.233,8.023 -5.416,8.023Z" style="fill:#00ffa5;fill-rule:nonzero;"/><path d="M228.743,139.509l-2.518,20.521l6.296,0l0.923,-7.887c0.755,-4.867 3.274,-7.133 6.295,-6.042l0.882,-6.973c-2.267,0 -4.281,1.091 -5.876,3.189l-0.084,0l0.378,-2.808l-6.296,0Z" style="fill:#00ffa5;fill-rule:nonzero;"/><path d="M247.506,160.408c2.351,0 4.366,-1.258 5.92,-3.439l0.126,0.042l-0.378,3.019l6.297,0l3.821,-30.895l-6.34,0l-1.427,11.796l-0.126,0c-1.218,-1.174 -2.897,-1.803 -4.912,-1.803c-5.372,0 -9.693,5.578 -9.693,12.887c0,4.744 2.265,8.393 6.712,8.393Zm1.973,-5.578c-1.427,0 -2.351,-1.303 -2.351,-3.277c0,-3.066 1.68,-6.805 4.45,-6.805c1.386,0 2.561,0.462 3.485,1.47l-0.084,0.589c-0.756,5.166 -3.275,8.023 -5.5,8.023Z" style="fill:#00ffa5;fill-rule:nonzero;"/></g></g></g></svg>