<?xml version="1.0" encoding="UTF-8" standalone="no"?><!DOCTYPE svg PUBLIC "-//W3C//DTD SVG 1.1//EN" "http://www.w3.org/Graphics/SVG/1.1/DTD/svg11.dtd"><svg width="100%" height="100%" viewBox="0 0 300 300" version="1.1" xmlns="http://www.w3.org/2000/svg" xmlns:xlink="http://www.w3.org/1999/xlink" xml:space="preserve" style="fill-rule:evenodd;clip-rule:evenodd;stroke-linejoin:round;stroke-miterlimit:1.41421;"><g id="Calque1"><rect x="0" y="0" width="300" height="300" style="fill:#11de89;"/><g><path d="M44.709,128.425l5.13,32.519l6.504,0l7.466,-21.023l0.092,0l2.198,21.023l6.687,0l13.146,-32.519l-7.832,0l-7.054,19.924l-0.137,0l-1.787,-19.924l-7.42,0l-6.871,20.473l-0.137,0l-2.382,-20.473l-7.603,0Z" style="fill:#090040;fill-rule:nonzero;"/><g><path d="M101.965,144.315c0.046,-4.211 -4.028,-6.179 -7.644,-6.179c-7.559,0 -12.277,6.225 -12.277,13.833c-0.046,5.818 3.71,9.387 9.345,9.387c4.397,0 7.372,-1.647 9.752,-4.896l-5.126,-3.024c-1.236,1.65 -2.565,2.246 -4.076,2.246c-1.329,0 -2.795,-0.825 -3.207,-2.842c6.596,-0.687 13.142,-2.842 13.233,-8.525Zm-6.591,0.963c-0.046,2.2 -3.069,3.071 -6.413,3.437c0.779,-3.116 2.794,-4.858 4.764,-4.858c1.054,0 1.695,0.504 1.649,1.421Z" style="fill:#090040;fill-rule:nonzero;"/><path d="M108.061,127.234l-4.12,33.71l6.868,0l4.166,-33.71l-6.914,0Z" style="fill:#090040;fill-rule:nonzero;"/><path d="M120.339,127.234l-4.121,33.71l6.868,0l4.166,-33.71l-6.913,0Z" style="fill:#090040;fill-rule:nonzero;"/><path d="M141.001,128.425l-3.985,32.519l10.078,0c10.993,0 17.585,-7.736 17.585,-19.009c0,-8.292 -4.44,-13.51 -13.417,-13.51l-10.261,0Zm6.917,25.974l-2.932,0l2.383,-19.429l3.069,0c4.535,0 6.642,2.612 6.642,7.103c0,6.827 -3.161,12.326 -9.162,12.326Z" style="fill:#090040;fill-rule:nonzero;"/><path d="M176.546,161.356c8.568,0 12.458,-6.362 12.458,-13.649c0,-6.092 -3.799,-9.571 -9.57,-9.571c-7.881,0 -12.367,6.408 -12.367,13.604c0,6.138 3.799,9.616 9.479,9.616Zm0.504,-6.132c-1.467,0 -3.026,-1.192 -3.026,-3.85c0,-3.438 1.834,-7.105 4.86,-7.105c1.237,0 3.163,0.688 3.163,3.896c0,3.667 -1.971,7.059 -4.997,7.059Z" style="fill:#090040;fill-rule:nonzero;"/><path d="M194.243,138.549l-2.794,22.395l6.871,0l1.008,-8.291c0.733,-5.589 3.665,-8.384 5.726,-8.384c1.466,0 1.74,1.42 1.329,4.535l-1.603,12.14l6.809,0l1.781,-13.697c0.824,-6.271 -0.913,-9.111 -5.16,-9.111c-2.927,0 -5.4,1.237 -7.416,3.573l-0.092,-0.046l0.367,-3.114l-6.826,0Z" style="fill:#090040;fill-rule:nonzero;"/><path d="M236.555,144.315c0.046,-4.211 -4.028,-6.179 -7.645,-6.179c-7.558,0 -12.277,6.225 -12.277,13.833c-0.045,5.818 3.711,9.387 9.346,9.387c4.397,0 7.372,-1.647 9.752,-4.896l-5.126,-3.024c-1.236,1.65 -2.565,2.246 -4.077,2.246c-1.328,0 -2.794,-0.825 -3.206,-2.842c6.596,-0.687 13.141,-2.842 13.233,-8.525Zm-6.591,0.963c-0.046,2.2 -3.069,3.071 -6.413,3.437c0.778,-3.116 2.794,-4.858 4.764,-4.858c1.054,0 1.695,0.504 1.649,1.421Z" style="fill:#090040;fill-rule:nonzero;"/><path d="M251.583,127.234l-1.602,22.63l4.898,0l3.985,-22.63l-7.281,0Zm-0.091,34.214c2.518,0 4.12,-1.739 4.12,-4.12c0,-2.243 -1.511,-3.891 -3.983,-3.891c-2.472,0 -4.074,1.694 -4.074,4.028c0,2.289 1.511,3.983 3.937,3.983Z" style="fill:#090040;fill-rule:nonzero;"/></g></g></g></svg>